<?xml version="1.0" encoding="UTF-8"?>
<svg width="86px" height="86px" enable-background="new 0 0 86 86" version="1.1" viewBox="0 0 86 86" xml:space="preserve" xmlns="http://www.w3.org/2000/svg" xmlns:cc="http://creativecommons.org/ns#" xmlns:dc="http://purl.org/dc/elements/1.1/" xmlns:rdf="http://www.w3.org/1999/02/22-rdf-syntax-ns#" xmlns:xlink="http://www.w3.org/1999/xlink"><metadata><rdf:RDF><cc:Work rdf:about=""><dc:format>image/svg+xml</dc:format><dc:type rdf:resource="http://purl.org/dc/dcmitype/StillImage"/></cc:Work></rdf:RDF></metadata><defs>
		
<linearGradient id="linearGradient871" x1="111.66" x2="191.68" y1="74.846" y2="-4.1074" gradientTransform="translate(-100.1 -.27039)" gradientUnits="userSpaceOnUse"><stop stop-color="#CBCBCB" offset="0"/><stop stop-color="#fff" offset="1"/></linearGradient></defs>
<path d="m85.699 43c0-23.582-19.117-42.7-42.7-42.7-23.582 0-42.699 19.118-42.699 42.7 0 23.583 19.117 42.7 42.7 42.7h41.277c0.786 0 1.423-0.637 1.423-1.423 0 0-1e-3 -40.641-1e-3 -41.277z" fill="url(#linearGradient871)"/>
<g transform="matrix(1.1778 0 0 1.1778 -122.27 -9.2052)" fill="#006dad"><path d="m127.55 21.721c-5.4505 0-9.8379 4.3874-9.8379 9.8379v25.529c0 5.4505 4.3874 9.8379 9.8379 9.8379h25.529c5.4505 0 9.8379-4.3874 9.8379-9.8379v-25.529c0-5.4505-4.3874-9.8379-9.8379-9.8379zm3.582 3.0664h18.781c4.0097 0 7.2383 3.2286 7.2383 7.2383v18.781c0 4.0097-3.2286 7.2363-7.2383 7.2363h-18.781c-4.0097 0-7.2363-3.2266-7.2363-7.2363v-18.781c0-4.0097 3.2266-7.2383 7.2363-7.2383z" stroke-width="32.414"/><g transform="matrix(.44621 0 0 .44621 120.45 20.387)" stroke="#666" stroke-linecap="round" stroke-linejoin="round" stroke-opacity=".2" stroke-width=".016"><rect x="37.429" y="15.925" width="14.984" height="49.984" rx="8.8786" ry="8.8786" style="paint-order:markers fill stroke"/><rect x="16.786" y="28.529" width="14.984" height="24.984" rx="8.8786" ry="8.8786" style="paint-order:markers fill stroke"/><rect x="58.072" y="28.425" width="14.984" height="24.984" rx="8.8786" ry="8.8786" style="paint-order:markers fill stroke"/></g></g></svg>
